<svg viewBox="0 0 60 60" xml:space="preserve" xmlns="http://www.w3.org/2000/svg" enable-background="new 0 0 60 60"><path d="M25.86 30a2.88 2.88 0 1 0-5.761.001A2.88 2.88 0 0 0 25.86 30zm-2.88.88c-.48 0-.88-.39-.88-.88s.39-.88.88-.88.88.39.88.88-.4.88-.88.88zM22.98 24.58c2.53 0 4.59-2.06 4.59-4.59s-2.06-4.59-4.59-4.59-4.59 2.06-4.59 4.59 2.06 4.59 4.59 4.59zm0-7.19a2.59 2.59 0 1 1-.001 5.181 2.59 2.59 0 0 1 .001-5.181zM15.54 31c1.09-.56 1.9-1.51 2.28-2.67s.28-2.41-.28-3.5-1.51-1.9-2.67-2.28a4.533 4.533 0 0 0-3.5.28c-1.09.56-1.9 1.51-2.28 2.67-.38 1.17-.28 2.41.28 3.5.56 1.09 1.51 1.9 2.67 2.28.47.15.95.23 1.42.23.71-.01 1.42-.18 2.08-.51zm-4.39-2.92a2.62 2.62 0 0 1-.16-1.98c.21-.66.67-1.19 1.29-1.51a2.551 2.551 0 0 1 1.97-.15c.66.21 1.19.67 1.51 1.29.31.62.37 1.32.16 1.98s-.67 1.19-1.29 1.51-1.32.37-1.98.16a2.6 2.6 0 0 1-1.5-1.3zM19.79 34.39a4.589 4.589 0 0 0-6.41 1.02 4.589 4.589 0 0 0 1.02 6.41c.81.59 1.76.88 2.69.88 1.42 0 2.82-.66 3.72-1.89 1.49-2.06 1.03-4.94-1.02-6.42zm-.6 5.23a2.59 2.59 0 0 1-3.62.57 2.59 2.59 0 0 1-.57-3.62 2.591 2.591 0 0 1 4.19 3.05zM29.58 33.57a4.59 4.59 0 0 0-3.42.82c-.99.72-1.64 1.79-1.84 3-.19 1.21.1 2.42.82 3.42.72.99 1.78 1.64 3 1.84a4.533 4.533 0 0 0 3.42-.82c.99-.72 1.64-1.79 1.84-3a4.59 4.59 0 0 0-.82-3.42c-.72-1-1.79-1.65-3-1.84zm.81 6.63c-.56.41-1.25.57-1.93.46a2.599 2.599 0 0 1 .4-5.16c.14 0 .27.01.41.03a2.6 2.6 0 0 1 1.69 1.04 2.61 2.61 0 0 1-.57 3.63zM36.59 28.99c.56-1.09.65-2.34.28-3.5s-1.19-2.12-2.28-2.67a4.536 4.536 0 0 0-3.5-.28 4.536 4.536 0 0 0-2.67 2.28 4.581 4.581 0 0 0-.28 3.5 4.536 4.536 0 0 0 2.28 2.67c.66.33 1.36.5 2.08.5.48 0 .96-.08 1.42-.23a4.487 4.487 0 0 0 2.67-2.27zm-1.78-.91c-.31.62-.85 1.07-1.51 1.29a2.603 2.603 0 0 1-3.27-1.67c-.21-.66-.16-1.36.16-1.98.31-.62.85-1.07 1.51-1.29.26-.09.53-.13.8-.13.4 0 .8.1 1.17.28.62.31 1.07.85 1.29 1.51.22.67.17 1.38-.15 1.99z" fill="#ad241b" class="fill-000000"></path><path d="M54 22.89c-.55 0-1 .45-1 1v7.4c-1.55.01-3.12.34-4.75.97l-.89-4.63c1.19-.84 2.4-1.51 3.63-1.97.52-.2.78-.77.58-1.29a.994.994 0 0 0-1.29-.58c-1.56.59-3.1 1.45-4.58 2.56l-.01.01c-.01.01-.03.02-.04.03-1.65 1.24-3.25 2.82-4.75 4.67.02-.35.05-.69.05-1.04 0-9.91-8.07-17.98-17.98-17.98S5 20.09 5 30s8.06 17.98 17.98 17.98c3.84 0 7.4-1.22 10.32-3.28.03-.02.07-.03.1-.05 2.01-1.41 3.82-2.78 5.56-4.1 1.41-1.07 2.75-2.09 4.03-2.99a.27.27 0 0 0 .08-.07c1.9-1.35 3.45-2.28 4.85-2.93 2.15-1 4.05-1.39 6-1.23.28.03.55-.07.76-.26.2-.21.32-.47.32-.75v-8.43c0-.56-.45-1-1-1zm-8.4 6.12.78 4.08c-1.05.54-2.19 1.22-3.46 2.08l-.85-2.38a27.42 27.42 0 0 1 3.53-3.78zm-5.56 6.61c.19-.29.39-.59.59-.89l.58 1.63c-.69.5-1.41 1.03-2.13 1.58.37-.74.7-1.51.96-2.32zM7 30c0-8.81 7.17-15.98 15.98-15.98S38.96 21.19 38.96 30s-7.17 15.98-15.98 15.98S7 38.81 7 30z" fill="#ad241b" class="fill-000000"></path></svg>