<svg xmlns="http://www.w3.org/2000/svg" width="38.695" height="27.814" viewBox="0 0 38.695 27.814">
  <g id="filmophile-icon" transform="translate(-5 -12.04)">
    <path id="Path_669" data-name="Path 669" d="M22.017,26.7a2.229,2.229,0,1,0-2.229,2.229A2.229,2.229,0,0,0,22.017,26.7Zm-2.229.681a.681.681,0,1,1,.681-.681A.682.682,0,0,1,19.788,27.38Zm0-4.876a3.552,3.552,0,1,0-3.552-3.552A3.557,3.557,0,0,0,19.788,22.5Zm0-5.564a2,2,0,1,1-2,2,2,2,0,0,1,2-2ZM14.03,27.473a3.556,3.556,0,0,0,1.764-2.066,3.511,3.511,0,0,0-.217-2.709,3.556,3.556,0,0,0-2.066-1.764,3.508,3.508,0,0,0-2.709.217,3.556,3.556,0,0,0-1.764,2.066,3.508,3.508,0,0,0,.217,2.709,3.556,3.556,0,0,0,2.066,1.764,3.626,3.626,0,0,0,1.1.178,3.713,3.713,0,0,0,1.61-.395Zm-3.4-2.26a2.028,2.028,0,0,1-.124-1.532,2,2,0,0,1,3.691-.286,2.027,2.027,0,0,1,.124,1.532,2.014,2.014,0,0,1-2.531,1.292A2.012,2.012,0,0,1,10.633,25.213ZM17.319,30.1a3.553,3.553,0,1,0,.789,4.968A3.551,3.551,0,0,0,17.319,30.1Zm-.464,4.047a2.005,2.005,0,1,1-.441-2.8A2,2,0,0,1,16.855,34.144ZM24.9,29.462a3.557,3.557,0,0,0-1.114,7.027,3.508,3.508,0,0,0,2.647-.635,3.557,3.557,0,0,0,.789-4.968A3.512,3.512,0,0,0,24.9,29.462Zm.627,5.131a1.98,1.98,0,0,1-1.494.356,2.011,2.011,0,0,1,.31-3.993,2.189,2.189,0,0,1,.317.023,2.014,2.014,0,0,1,.867,3.614Zm4.8-8.675a3.545,3.545,0,0,0,.217-2.709A3.549,3.549,0,0,0,24,22.69a3.541,3.541,0,0,0,4.256,4.984,3.472,3.472,0,0,0,2.066-1.757Zm-1.378-.7a1.992,1.992,0,0,1-1.169,1,2.014,2.014,0,0,1-2.531-1.292,2.014,2.014,0,0,1,1.292-2.531,1.887,1.887,0,0,1,.619-.1,2.077,2.077,0,0,1,.905.217,1.992,1.992,0,0,1,1,1.169,1.971,1.971,0,0,1-.116,1.54Z" transform="translate(-0.873 -0.76)" fill="#1aac54"/>
    <path id="Path_670" data-name="Path 670" d="M42.921,20.437a.776.776,0,0,0-.774.774v5.727a10.327,10.327,0,0,0-3.676.751L37.782,24.1a12.505,12.505,0,0,1,2.809-1.525.774.774,0,1,0-.549-1.447A14.469,14.469,0,0,0,36.5,23.114l-.008.008c-.008.008-.023.015-.031.023a21.242,21.242,0,0,0-3.676,3.614c.015-.271.039-.534.039-.8A13.941,13.941,0,1,0,26.9,37.315c.023-.015.054-.023.077-.039,1.556-1.091,2.956-2.151,4.3-3.173,1.091-.828,2.128-1.617,3.119-2.314a.209.209,0,0,0,.062-.054,24.1,24.1,0,0,1,3.753-2.268,8.963,8.963,0,0,1,4.643-.952.755.755,0,0,0,.588-.2.842.842,0,0,0,.248-.58V21.211a.771.771,0,0,0-.774-.774Zm-6.5,4.736.6,3.157a26.04,26.04,0,0,0-2.678,1.61L33.688,28.1a21.221,21.221,0,0,1,2.732-2.925Zm-4.3,5.115c.147-.224.3-.457.457-.689l.449,1.261c-.534.387-1.091.8-1.648,1.223a12.683,12.683,0,0,0,.743-1.8ZM6.548,25.939A12.367,12.367,0,1,1,18.915,38.306,12.382,12.382,0,0,1,6.548,25.939Z" transform="translate(0 0)" fill="#1aac54"/>
  </g>
</svg>
